# xmcd CD database file
#
# Track frame offsets:
#	150
#	21325
#	40757
#	63886
#	80133
#	101876
#	122487
#	136802
#	154159
#	173511
#
# Disc length: 2601 seconds
#
# Revision: 0
# Processed by: cddbd v1.5.1PL2 Copyright (c) Steve Scherf et al.
# Submitted via: CDex 1.51
#
DISCID=7b0a270a
DTITLE=Walle Larsson - A Breath of Christmas
DYEAR=1999
DGENRE=Jazz
TTITLE0=O Come All Ye Faithful
TTITLE1=God Rest Ye Merry Gentlemen
TTITLE2=Silent Night
TTITLE3=O Little Town of Bethlehem
TTITLE4=O Holy Night
TTITLE5=The First Noel
TTITLE6=It Came Upon a Midnight Clear
TTITLE7=Joy to the World
TTITLE8=Good King Wenceslas
TTITLE9=Amazing Grace
EXTD=YEAR: 1999
EXTT0=
EXTT1=
EXTT2=
EXTT3=
EXTT4=
EXTT5=
EXTT6=
EXTT7=
EXTT8=
EXTT9=
PLAYORDER=
